<svg width="20" height="20" viewBox="0 0 20 20" fill="none" xmlns="http://www.w3.org/2000/svg">
<path d="M19.7024 0.297853C20.0709 0.666407 20.0971 1.24762 19.7813 1.64644L19.7024 1.73526L11.4381 9.99922L19.7024 18.2649C20.0992 18.6617 20.0992 19.3056 19.7024 19.7024C19.3338 20.0709 18.7526 20.0971 18.3538 19.7813L18.265 19.7024L10.0007 11.4367L1.73531 19.7024C1.33817 20.0992 0.694677 20.0992 0.297853 19.7024C-0.0707009 19.3338 -0.0972459 18.7526 0.218902 18.3538L0.297853 18.265L8.56356 9.99927L0.297853 1.73531C-0.0992844 1.33817 -0.0992844 0.694677 0.297853 0.297853C0.666408 -0.0707009 1.24762 -0.0972459 1.64645 0.218902L1.73526 0.297853L10.0006 8.56181L18.2649 0.297853C18.6617 -0.0992844 19.3056 -0.0992844 19.7024 0.297853Z" fill="white"/>
</svg>
