<svg width="36" height="36" viewBox="0 0 36 36" fill="none" xmlns="http://www.w3.org/2000/svg">
<path d="M0.300846 11.6114C0.0680682 11.8619 -0.038148 12.2049 0.0123211 12.5431C0.0627941 12.8813 0.264435 13.1781 0.560236 13.3498L12.4238 20.2157L25.1854 10.8174L15.7903 23.5849L22.6494 35.4359C22.7948 35.6888 23.0326 35.8751 23.3128 35.9559C23.5928 36.0367 23.8933 36.0056 24.151 35.8693C24.4086 35.7329 24.6035 35.5017 24.6941 35.2248L35.9438 1.47601C36.0309 1.21113 36.0163 0.923395 35.9031 0.66859C35.7901 0.413753 35.5862 0.20988 35.3313 0.0968975C35.0764 -0.0163355 34.7887 -0.0309002 34.5238 0.0562237L0.770372 11.305C0.590076 11.3655 0.428114 11.4707 0.299797 11.6108L0.300846 11.6114Z" fill="white"/>
</svg>
